<?xml version="1.0" standalone="no"?>
<!DOCTYPE svg PUBLIC "-//W3C//DTD SVG 20010904//EN"
 "http://www.w3.org/TR/2001/REC-SVG-20010904/DTD/svg10.dtd">
<svg version="1.0" xmlns="http://www.w3.org/2000/svg"
 width="256.000000pt" height="256.000000pt" viewBox="0 0 256.000000 256.000000"
 preserveAspectRatio="xMidYMid meet">

<g transform="translate(0.000000,256.000000) scale(0.100000,-0.100000)"
fill="#000000" stroke="none">
<path d="M1685 2503 c-293 -26 -581 -45 -805 -53 -303 -11 -349 -15 -400 -36
-83 -35 -118 -104 -124 -246 -4 -81 -5 -85 -40 -120 -27 -27 -36 -44 -36 -70
0 -50 28 -127 61 -170 39 -50 37 -74 -11 -118 -36 -33 -40 -42 -40 -83 0 -55
32 -147 60 -172 33 -30 26 -72 -20 -116 -35 -34 -40 -45 -40 -84 0 -53 33
-145 60 -170 13 -12 20 -31 20 -54 0 -30 -5 -40 -31 -55 -45 -27 -64 -77 -49
-135 13 -55 53 -126 75 -135 24 -9 20 -82 -5 -96 -23 -12 -50 -60 -50 -88 0
-38 31 -120 58 -155 23 -28 30 -50 35 -102 9 -94 26 -143 61 -172 l31 -26 190
7 c684 24 1240 65 1374 102 99 28 159 84 197 184 13 34 18 88 22 220 6 239
-16 1462 -29 1583 -24 233 -91 326 -254 356 -54 10 -217 12 -310 4z m278 -53
c175 -26 221 -104 237 -405 15 -283 32 -1522 21 -1600 -24 -182 -86 -233 -316
-259 -283 -33 -909 -72 -1233 -78 -153 -3 -165 -2 -178 17 -16 22 -30 69 -39
135 -6 42 -4 46 24 62 17 9 51 48 76 87 26 42 52 71 62 71 25 0 63 40 63 67 0
55 -41 90 -85 73 -34 -13 -49 -53 -35 -96 10 -30 8 -38 -34 -102 -24 -38 -51
-72 -60 -75 -20 -8 -24 17 -30 191 l-5 133 37 34 c20 18 53 58 72 89 20 32 43
56 55 58 11 2 26 16 34 32 12 25 11 33 -3 62 -22 48 -62 56 -93 20 -27 -31
-29 -62 -8 -94 15 -20 14 -25 -23 -80 -73 -106 -72 -107 -72 81 l0 165 26 16
c14 10 45 48 70 87 25 38 52 69 59 69 8 0 24 9 36 21 37 37 4 119 -48 119 -51
0 -82 -71 -49 -115 12 -16 10 -24 -15 -64 -15 -25 -38 -57 -51 -71 l-23 -25
-6 95 c-12 173 -11 240 5 240 17 0 61 49 101 112 17 27 38 48 47 48 18 0 58
45 58 66 0 26 -23 62 -47 73 -55 25 -107 -51 -72 -107 9 -14 8 -25 -4 -48 -24
-45 -76 -114 -87 -114 -6 0 -10 62 -10 165 0 159 1 165 22 176 29 16 51 42 89
107 28 48 33 52 68 52 20 0 42 5 49 12 19 19 14 82 -8 106 -43 46 -100 12
-100 -59 0 -30 -10 -58 -35 -98 -34 -57 -71 -98 -80 -89 -3 2 -8 94 -11 204
-6 170 -5 207 10 256 28 99 53 106 381 119 216 8 365 18 885 59 140 11 197 11
273 0z m-1601 -537 c3 -101 -8 -109 -36 -26 -23 67 -21 118 7 146 l22 22 2
-25 c1 -14 4 -66 5 -117z m264 71 c-4 -9 -9 -15 -11 -12 -3 3 -3 13 1 22 4 9
9 15 11 12 3 -3 3 -13 -1 -22z m-256 -415 c0 -66 -4 -108 -9 -104 -13 8 -51
111 -51 139 0 24 35 76 51 76 5 0 9 -49 9 -111z m228 80 c-3 -8 -7 -3 -11 10
-4 17 -3 21 5 13 5 -5 8 -16 6 -23z m-28 -24 c11 -13 10 -14 -4 -9 -9 3 -16
10 -16 15 0 13 6 11 20 -6z m-202 -477 l-3 -63 -24 49 c-37 78 -38 116 -5 156
l29 34 3 -57 c2 -31 2 -85 0 -119z m231 -221 c0 -8 -2 -8 -6 1 -4 9 -8 10 -18
2 -10 -8 -15 -8 -21 1 -4 7 -3 9 4 5 6 -3 13 -2 17 4 8 13 25 3 24 -13z m-225
-9 c3 -13 6 -65 6 -116 0 -105 -8 -110 -46 -28 -30 65 -31 112 -2 143 27 29
34 29 42 1z m191 -18 c-3 -5 -1 -10 6 -10 7 0 10 -3 6 -6 -9 -9 -28 6 -22 17
4 5 8 9 11 9 3 0 2 -4 -1 -10z m-177 -490 l0 -55 -24 50 c-28 60 -31 120 -6
148 16 19 17 18 24 -34 3 -30 6 -79 6 -109z"/>
<path d="M1065 1491 c-107 -7 -141 -19 -154 -54 -9 -24 4 -275 17 -322 16 -57
19 -57 457 -50 220 3 422 9 449 14 36 6 57 16 74 37 24 28 25 31 19 154 -7
142 -17 181 -55 207 -25 16 -56 18 -367 19 -187 1 -385 -2 -440 -5z m703 -58
c-21 -2 -55 -2 -75 0 -21 2 -4 4 37 4 41 0 58 -2 38 -4z m-595 -10 c-18 -2
-48 -2 -65 0 -18 2 -4 4 32 4 36 0 50 -2 33 -4z m677 -8 c19 -23 8 -25 -14 -4
-11 11 -15 19 -9 19 6 0 16 -7 23 -15z m-853 -1 c-3 -3 -12 -4 -19 -1 -8 3 -5
6 6 6 11 1 17 -2 13 -5z m-20 -131 c-2 -16 -4 -3 -4 27 0 30 2 43 4 28 2 -16
2 -40 0 -55z m890 -90 c-2 -27 -3 -5 -3 47 0 52 1 74 3 48 2 -27 2 -69 0 -95z
m-880 -35 c-3 -8 -6 -5 -6 6 -1 11 2 17 5 13 3 -3 4 -12 1 -19z m826 -15 c-7
-2 -19 -2 -25 0 -7 3 -2 5 12 5 14 0 19 -2 13 -5z m-115 -10 c-10 -2 -28 -2
-40 0 -13 2 -5 4 17 4 22 1 32 -1 23 -4z m-225 -10 c-29 -2 -77 -2 -105 0 -29
2 -6 3 52 3 58 0 81 -1 53 -3z"/>
</g>
</svg>
